<svg xmlns="http://www.w3.org/2000/svg" width="100" height="44" viewBox="0 0 1087.4955 487.40664"><g transform="matrix(1.3333333,0,0,-1.3333333,-5.2083332e-4,487.40665)"><path style="fill:#fab40a;fill-opacity:1;fill-rule:nonzero;stroke:none;stroke-width:0.1" d="m 89.3617,364.794 c -49.289,0 -89.361309375,-44.366 -89.361309375,-98.928 0,-54.562 40.072309375,-98.928 89.361309375,-98.928 20.8643,0 48.4603,3.395 77.0893,29.947 5.337,4.923 5.617,13.171 0.694,18.508 -4.923,5.343 -13.171,5.617 -18.509,0.694 -21.839,-20.171 -41.39,-22.947 -59.2743,-22.947 -34.8699,0 -63.1543,32.583 -63.1543,72.726 0,40.072 28.3489,72.72 63.1543,72.72 30.9903,0 56.7783,-25.717 62.1853,-59.619 H 61.841 c -7.2097,0 -13.1062,-5.891 -13.1062,-13.101 0,-7.21 5.8965,-13.106 13.1062,-13.106 h 103.781 c 7.209,0 13.101,5.896 13.101,13.106 0,54.626 -40.072,98.928 -89.3613,98.928" /><path style="fill:#fab40a;fill-opacity:1;fill-rule:nonzero;stroke:none;stroke-width:0.1" d="m 447.778,359.248 c -6.796,2.566 -14.35,-0.899 -16.847,-7.624 L 382.267,222.4 331.794,350.93 c -1.108,3.465 -3.67,6.445 -7.274,8.038 -0.21,0.07 -0.35,0.21 -0.56,0.28 -0.134,0.07 -0.344,0.14 -0.484,0.14 -0.07,0 -0.14,0.069 -0.14,0.069 -0.344,0.135 -0.694,0.205 -1.039,0.275 -0.069,0 -0.204,0.07 -0.274,0.07 -0.279,0.07 -0.624,0.14 -0.903,0.14 -0.135,0 -0.281,0 -0.414,0.07 -0.281,0 -0.491,0.07 -0.765,0.07 h -0.624 -0.554 c -0.274,0 -0.555,-0.07 -0.834,-0.07 -0.135,0 -0.28,0 -0.414,-0.07 -0.345,-0.07 -0.625,-0.14 -0.975,-0.21 -0.064,0 -0.133,-0.07 -0.204,-0.07 -0.344,-0.07 -0.694,-0.205 -1.038,-0.274 -0.075,0 -0.075,0 -0.14,-0.07 -0.204,-0.07 -0.35,-0.14 -0.554,-0.21 -3.885,-1.522 -6.655,-4.713 -7.764,-8.388 L 258.45,222.33 207.703,351.758 c -2.631,6.726 -10.261,10.056 -16.986,7.42 -6.725,-2.637 -10.051,-10.26 -7.42,-16.986 l 63.159,-161.113 c 1.938,-4.994 6.796,-8.318 12.204,-8.318 h 0.064 c 5.407,0.069 10.266,3.395 12.202,8.457 l 48.671,129.225 50.741,-129.364 c 1.943,-4.994 6.796,-8.318 12.203,-8.318 h 0.07 c 5.413,0.069 10.261,3.395 12.203,8.457 l 60.727,161.114 c 2.432,6.795 -1.039,14.349 -7.763,16.916" /><path style="fill:#fab40a;fill-opacity:1;fill-rule:nonzero;stroke:none;stroke-width:0.1" d="m 815.488,243.749 v 0 102.463 c 0,7.21 -5.897,13.107 -13.107,13.107 -7.204,0 -13.1,-5.897 -13.1,-13.107 V 243.68 c 0,-13.655 -5.478,-26.552 -15.388,-36.328 -9.916,-9.776 -22.812,-15.113 -36.397,-15.113 -13.586,0 -26.558,5.407 -36.399,15.113 -9.916,9.776 -15.388,22.673 -15.388,36.328 V 347.6 c 0,7.21 -5.896,13.102 -13.106,13.102 -7.204,0 -13.101,-5.892 -13.101,-13.102 V 243.749 c 0,-20.73 8.248,-40.207 23.221,-54.975 14.84,-14.629 34.316,-22.667 54.842,-22.667 19.133,0 37.366,6.999 51.785,19.826 C 788.382,144.128 772.57,104.82 744.565,74.8719 715.726,44.0918 677.317,26.827 636.415,26.2031 h -2.846 c -35.768,0 -68.561,9.7059 -94.763,28.009 -27.73,19.3418 -47.282,47.1419 -58.097,82.5669 -2.147,6.934 -9.431,10.814 -16.362,8.667 -6.934,-2.152 -10.813,-9.432 -8.667,-16.362 C 468.092,88.457 491.658,55.1109 523.832,32.718 554.473,11.2988 592.463,0 633.644,0 h 3.186 c 48.11,0.689063 93.175,20.9352 126.867,56.9129 33.487,35.7742 51.925,82.9861 51.925,132.9691 l -0.134,53.867" /><path style="fill:#fab40a;fill-opacity:1;fill-rule:nonzero;stroke:none;stroke-width:0.1" d="m 461.921,226.21 c 0.829,-15.183 6.516,-28.354 16.642,-38.2 8.108,-7.903 18.782,-13.655 31.819,-17.19 9.286,-2.496 19.756,-3.815 30.361,-3.815 1.044,0 2.083,0 3.056,0.071 10.599,0.274 23.496,2.98 30.296,5.407 17.396,6.241 30.361,15.253 39.788,27.52 11.439,14.979 17.335,34.321 17.959,59.135 l 0.071,3.954 v 0.345 c 0,26.208 -9.018,51.301 -25.304,70.713 -17.056,20.246 -39.729,31.405 -63.854,31.405 -22.806,0 -40.556,-4.643 -57.612,-15.043 -6.166,-3.745 -8.108,-11.853 -4.363,-18.024 3.739,-6.172 11.852,-8.114 18.018,-4.369 12.903,7.834 26.068,11.234 43.957,11.234 34.041,0 62.88,-34.665 62.95,-75.776 l -0.07,-3.745 c -1.108,-42.774 -21.075,-55.67 -40.417,-62.669 -4.719,-1.733 -14.973,-3.746 -22.043,-3.88 -19.832,-0.49 -37.162,4.573 -46.313,13.586 -5.962,5.821 -8.873,13.38 -8.873,23.226 v 0.554 c 0.134,10.744 3.815,18.368 11.504,23.915 19.137,13.796 55.464,9.777 62.604,7.141 6.796,-2.497 14.35,0.973 16.846,7.763 2.497,6.796 -0.974,14.355 -7.764,16.846 -6.515,2.426 -20.934,4.718 -37.161,4.164 -14.21,-0.489 -34.381,-3.4 -49.913,-14.629 -15.323,-11.024 -23.012,-27.8 -22.317,-48.46 0.064,-0.484 0.064,-0.834 0.133,-1.179" /></g></svg>
